<svg version="1.2" xmlns="http://www.w3.org/2000/svg" viewBox="0 0 11 17" width="11" height="17"><style>.a{fill:#72b6ef}</style><path class="a" d="m5.2 16.1c-1.4 0-2.7-0.3-3.7-0.8-1-0.6-1.5-1.4-1.5-2.3 0-1 0.4-1.9 1.4-2.6 1-0.8 2.3-1.2 3.6-1.2q0.2 0 0.3 0-0.4-0.5-0.4-1 0-0.3 0.1-0.6 0 0 0 0c-1.1 0-2.2-0.4-2.9-1.1-0.7-0.7-1.1-1.7-1.1-2.7 0-1 0.5-2 1.4-2.7 0.9-0.7 2-1.1 3.2-1.1h4.5 0.9l-0.7 0.5-0.7 0.8h-0.1-0.1-0.6c0.6 0.6 0.8 1.5 0.8 2.5 0 1.1-0.4 2-1.4 2.8-0.8 0.5-0.8 0.7-0.8 1.1 0 0.2 0.4 0.9 1 1.3 1.3 0.9 1.8 1.8 1.8 3.3 0 1-0.3 2-1.2 2.6-0.9 0.8-2.2 1.2-3.8 1.2zm0.3-5.9c-1.7 0-3.2 1.1-3.2 2.3 0 1.2 1.3 2.3 2.9 2.3q3.3-0.1 3.3-2.3 0-0.2 0-0.4c-0.2-0.6-0.7-0.9-1.5-1.5q-0.2-0.1-0.3-0.2-0.6-0.1-1.1-0.2h-0.1zm-0.6-9q-0.7 0-1.1 0.5c-0.4 0.5-0.6 1.2-0.5 2.1 0.2 1.4 1.3 2.7 2.4 2.7q0.1 0 0.1 0 0.6 0 1-0.5c0.5-0.4 0.7-1.2 0.6-2-0.2-1.5-1.3-2.7-2.5-2.8q0 0 0 0z"/></svg>