<svg version="1.2" xmlns="http://www.w3.org/2000/svg" viewBox="0 0 14 12" width="14" height="12"><style>.a{fill:#fff}</style><path class="a" d="m14 2.1c-0.5 0.2-1 0.3-1.6 0.4 0.6-0.4 1.1-1.2 1.3-1.8-0.6 0.3-1.3 0.7-1.9 0.8-0.5-0.6-1.3-0.9-2.1-0.9-1.6 0-2.9 1.3-2.9 2.9q0 0.3 0.1 0.6c-2.4-0.1-4.5-1.2-5.9-3q-0.4 0.7-0.4 1.5c0 1 0.5 1.8 1.3 2.3q-0.8 0-1.3-0.3 0 0 0 0c0 1.4 0.9 2.6 2.3 2.8q-0.4 0.1-0.8 0.1-0.3 0-0.5 0c0.3 1.1 1.4 2 2.6 2-0.9 0.8-2.2 1.2-3.5 1.2q-0.4 0-0.7 0c1.3 0.8 2.8 1.3 4.4 1.3 5.3 0 8.2-4.4 8.2-8.2 0-0.1 0-0.1 0-0.2 0.5-0.4 1-1 1.4-1.5z"/></svg>